<?xml version="1.0" standalone="no"?><!DOCTYPE svg PUBLIC "-//W3C//DTD SVG 1.1//EN" "http://www.w3.org/Graphics/SVG/1.1/DTD/svg11.dtd"><svg t="1691125087506" class="icon" viewBox="0 0 1024 1024" version="1.1" xmlns="http://www.w3.org/2000/svg" p-id="27534" xmlns:xlink="http://www.w3.org/1999/xlink" width="128" height="128"><path d="M997.450075 456.532924L578.36628 27.926701a92.567308 92.567308 0 0 0-132.518838 0L26.78304 456.532924a92.761247 92.761247 0 0 0 64.000025 157.866727h62.913963V921.599767a102.322463 102.322463 0 0 0 102.419433 102.400039h153.638846v-256.000097a51.161232 51.161232 0 0 1 51.200019-51.200019h102.419433a51.161232 51.161232 0 0 1 51.200019 51.200019v256.000097h153.541877a102.322463 102.322463 0 0 0 102.400038-102.400039V614.399651h62.913964a92.761247 92.761247 0 0 0 64.000024-157.866727z m0 0" fill="#A452EA" p-id="27535"></path></svg>