<?xml version="1.0" standalone="no"?><!DOCTYPE svg PUBLIC "-//W3C//DTD SVG 1.1//EN" "http://www.w3.org/Graphics/SVG/1.1/DTD/svg11.dtd"><svg t="1691124853837" class="icon" viewBox="0 0 1024 1024" version="1.1" xmlns="http://www.w3.org/2000/svg" p-id="9086" xmlns:xlink="http://www.w3.org/1999/xlink" width="128" height="128"><path d="M505.173952 0.080206C222.472995 3.868665-3.708249 236.159226 0.04608 518.894313 3.868669 801.492879 236.15923 1027.708253 518.860187 1023.953924c282.666827-3.788459 508.81394-236.07902 505.059611-518.814107C1020.165469 222.472991 787.840778-3.708253 505.139822 0.046076z m56.724495 170.651308c52.048649 0 67.407267 30.137021 67.407266 64.676846 0 43.140651-34.573955 83.038926-93.516917 83.038926-49.284098 0-72.697457-24.8127-71.332246-65.769014 0-34.539825 28.942462-81.946758 97.441897-81.946758z m-133.449323 661.239689c-35.563733 0-61.570992-21.604456-36.724162-116.520714l40.785663-168.262189c7.064964-26.997037 8.259523-37.81633 0-37.81633-10.614511 0-56.826886 18.669253-84.131095 36.997203l-17.747736-29.078982c86.554343-72.253764 186.009926-114.643549 228.672753-114.643549 35.529602 0 41.434138 42.082613 23.686401 106.793588l-46.724328 176.965407c-8.225393 31.26332-4.675846 42.048482 3.549547 42.048482 10.648642 0 45.63216-12.901239 80.035464-39.932406l20.068594 26.962907c-84.062834 84.096965-175.839108 116.486583-211.436971 116.486583z" fill="#F78827" p-id="9087"></path></svg>