<?xml version="1.0" standalone="no"?><!DOCTYPE svg PUBLIC "-//W3C//DTD SVG 1.1//EN" "http://www.w3.org/Graphics/SVG/1.1/DTD/svg11.dtd"><svg t="1690880450994" class="icon" viewBox="0 0 1024 1024" version="1.1" xmlns="http://www.w3.org/2000/svg" p-id="5236" xmlns:xlink="http://www.w3.org/1999/xlink" width="128" height="128"><path d="M419.136 159.488a384 384 0 0 0 509.44 509.44A426.816 426.816 0 0 1 85.376 576a426.816 426.816 0 0 1 333.76-416.512z m355.904 2.24l35.648 8.96v42.624l-35.648 8.96c-30.592 7.68-54.4 31.488-62.08 62.08L704 320h-42.624l-8.96-35.648a85.312 85.312 0 0 0-62.08-62.08l-35.648-8.96v-42.624l35.712-8.96c30.528-7.68 54.4-31.488 62.016-62.08l8.96-35.648h42.688l8.896 35.648c7.68 30.592 31.488 54.4 62.08 62.08z m213.312 213.376l35.712 8.896v42.688l-35.712 8.896c-30.528 7.68-54.4 31.488-62.08 62.08l-8.896 35.648h-42.688l-8.896-35.648a85.312 85.312 0 0 0-62.08-62.08l-35.648-8.96V384l35.648-8.96c30.592-7.616 54.4-31.488 62.08-62.08l8.96-35.648h42.624l8.96 35.712c7.616 30.528 31.488 54.4 62.08 62.08z" fill="#1296db" p-id="5237"></path></svg>