<?xml version="1.0" standalone="no"?><!DOCTYPE svg PUBLIC "-//W3C//DTD SVG 1.1//EN" "http://www.w3.org/Graphics/SVG/1.1/DTD/svg11.dtd"><svg t="1690880475133" class="icon" viewBox="0 0 1024 1024" version="1.1" xmlns="http://www.w3.org/2000/svg" p-id="7429" xmlns:xlink="http://www.w3.org/1999/xlink" width="128" height="128"><path d="M804.04864 511.744A291.84 291.84 0 1 1 514.25664 220.16 290.816 290.816 0 0 1 803.92064 511.744z m146.816 43.904h-32.512a39.68 39.68 0 0 1-40.192-37.888c-0.768-22.528 14.592-40.96 36.736-42.24 24.576-1.408 49.152-1.408 73.472 0 21.12 1.28 36.736 20.48 35.712 41.984a40.32 40.32 0 0 1-38.912 38.144h-34.304z m-877.568 0H40.65664A40.064 40.064 0 0 1 0.08064 517.12a39.296 39.296 0 0 1 36.736-41.728c24.576-1.408 49.152-1.408 73.472 0a39.68 39.68 0 0 1 36.096 41.344 39.936 39.936 0 0 1-38.912 38.784c-11.52 0.128-22.784 0-34.176 0z m99.328-416.384c14.336 0 23.68 3.84 31.744 11.648l46.464 46.464a40.064 40.064 0 0 1 0.768 56.192 39.68 39.68 0 0 1-56.064 2.176 1032.832 1032.832 0 0 1-49.536-49.664c-11.776-12.544-13.568-27.904-6.656-43.648a37.376 37.376 0 0 1 33.28-23.168z m710.4 709.888a38.016 38.016 0 0 1-23.936 34.176 38.016 38.016 0 0 1-43.776-7.68 1769.984 1769.984 0 0 1-48.128-47.872 40.064 40.064 0 0 1 1.28-56.448 40.704 40.704 0 0 1 56.704 0.384l46.464 46.464c7.68 7.68 11.52 17.152 11.52 30.976z m-705.92 34.816a38.272 38.272 0 0 1-35.072-23.808 37.376 37.376 0 0 1 7.04-43.52c15.488-16.256 31.488-32.512 47.872-48a39.936 39.936 0 0 1 57.344 1.024c15.616 16.384 14.72 40.704-1.792 57.344l-45.312 45.184a40.704 40.704 0 0 1-30.08 11.776zM552.52864 72.96v32.512a40.064 40.064 0 0 1-40.32 40.704 40.192 40.192 0 0 1-40.192-40.96V40.704A40.192 40.192 0 0 1 512.33664 0c22.528 0 39.936 17.92 40.192 40.96v32z m246.784 190.208a39.424 39.424 0 0 1-37.248-24.32 39.68 39.68 0 0 1 8.576-43.904c15.232-15.36 30.08-30.72 45.44-45.696 18.432-17.92 45.312-16.64 60.928 2.304a39.68 39.68 0 0 1-2.304 52.992c-15.744 16-31.744 31.744-47.744 47.744a37.12 37.12 0 0 1-27.648 10.88zM552.52864 951.296v32A40.32 40.32 0 0 1 512.20864 1024a39.68 39.68 0 0 1-39.936-40.32c-0.256-21.76-0.256-43.52 0-65.152a39.68 39.68 0 0 1 40.32-40.576c22.528 0 39.936 17.408 39.936 40.32 0.256 10.88 0 22.016 0 33.024z" fill="#FAAD14" p-id="7430"></path></svg>