<?xml version="1.0" standalone="no"?><!DOCTYPE svg PUBLIC "-//W3C//DTD SVG 1.1//EN" "http://www.w3.org/Graphics/SVG/1.1/DTD/svg11.dtd"><svg t="1690878577582" class="icon" viewBox="0 0 1024 1024" version="1.1" xmlns="http://www.w3.org/2000/svg" p-id="3220" width="128" height="128" xmlns:xlink="http://www.w3.org/1999/xlink"><path d="M510 63.9c-246.7 0-446.7 200-446.7 446.7s200 446.7 446.7 446.7 446.7-200 446.7-446.7c0-246.8-200-446.7-446.7-446.7z m237.9 437.8c-13.2 10.8-34.4 10.5-47.1-0.8L543.5 361.7c-0.1-0.1-0.2 0-0.2 0.1v368.6c0 15.1-13.8 27.3-31.3 28.2-19.4 1-35.4-12.5-35.4-28.9v-369c0-0.1-0.2-0.1-0.2-0.1L319.1 499.9c-12.7 11.3-33.8 11.6-47.1 0.8-13.2-10.8-13.7-28.8-0.9-40l214.3-189.6c6.3-5.5 15-8.7 24-8.7 9.1 0 17.7 3.2 24 8.7l215.4 190.6c6.2 5.5 9.3 12.5 9.3 19.6 0.1 7.4-3.3 14.8-10.2 20.4z" fill="#1296db" p-id="3221"></path></svg>